# xmcd
#
# Track frame offsets:
#	150
#	15767
#	28917
#	42455
#	55320
#	68910
#	82102
#	94797
#	106802
#	118095
#	129372
#	144550
#	155347
#	169975
#	184772
#	197530
#	211292
#	223862
#
# Disc length: 3151
#
# Revision: 3
# Processed by: cddbd v1.5.1PL0 Copyright (c) Steve Scherf et al.
# Submitted via: EasyCD2 v3.00 - Copyright (c) 1997 Greg Leichner
# Normalized: r1:TSWAP
#
DISCID=010c4d12
DTITLE=Soul Music Collection - 6. - L' Epoca d' Oro Della Motown
DYEAR=1900
DGENRE=
TTITLE0=Edwin Starr - War
TTITLE1=Gladys Knight and The Pips - I Heard It Through The Grapevine
TTITLE2=Marvin Gaye - How Sweet It Is (To Be Loved By You)
TTITLE3=Diana Ross and The Supremes - Stop! In The Name Of Love
TTITLE4=Jackson 5 - I Want You back
TTITLE5=The Originals - The Bells
TTITLE6=Rare Earth - Get Ready
TTITLE7=Rita Wright - I Can't Give Back The Love I Feel For You
TTITLE8=The Isley Brothers - Twist and Shout
TTITLE9=The Marvellettes - Please Mr. Postman
TTITLE10=Edwin Starr - Twenty-Five Miles
TTITLE11=Chris Clark - Love's Gone Bad
TTITLE12=Marvin Gaye - I Heard It Through The Grapevine
TTITLE13=The Undisputed Truth - Smiling Faces Sometimes
TTITLE14=Mary Wells - My Guy
TTITLE15=Jimmy Ruffin - What Becomes Of The Brokenhearted
TTITLE16=The Isley Brothers - The Old Heart Of Mine (Is Weak For You)
TTITLE17=Bobby Taylor and The Vancouvers - Does Your Mama Know About Me
EXTD=by David K. (Opatija City) - Croatia
EXTT0=
EXTT1=
EXTT2=
EXTT3=
EXTT4=
EXTT5=
EXTT6=
EXTT7=
EXTT8=
EXTT9=
EXTT10=
EXTT11=
EXTT12=
EXTT13=
EXTT14=
EXTT15=
EXTT16=
EXTT17=
PLAYORDER=
